# xmcd
#
# Track frame offsets:
#	150
#	19270
#	35281
#	51993
#	66080
#	79746
#	95165
#	113453
#	128794
#	150446
#	165338
#	182188
#	198456
#
# Disc length: 2861 seconds
#
# Revision: 1
# Processed by: cddbd v1.5.1PL0 Copyright (c) Steve Scherf et al.
# Submitted via: EasyCDDAExtractor 6.5.0.1
#
DISCID=a30b2b0d
DTITLE=L'autentika - La que te arranca la cabeza
DYEAR=2000
DGENRE=Cumbia
TTITLE0=Latita de cerveza
TTITLE1=Chiquitita bum bum
TTITLE2=Eo Eo
TTITLE3=Que suerte
TTITLE4=Quiereme
TTITLE5=Cumbia del orto
TTITLE6=Shakira
TTITLE7=Esta noche
TTITLE8=Abreme la puerta
TTITLE9=Ahe ahe mix
TTITLE10=Bombon de azucar mix
TTITLE11=Eo eo mix
TTITLE12=Chiquitita bum bum mix
EXTD=
EXTT0=
EXTT1=
EXTT2=
EXTT3=
EXTT4=
EXTT5=
EXTT6=
EXTT7=
EXTT8=
EXTT9=
EXTT10=
EXTT11=
EXTT12=
PLAYORDER=
